<svg width="271" height="230" viewBox="0 0 271 230" fill="none" xmlns="http://www.w3.org/2000/svg">
<g filter="url(#filter0_d_1_48)">
<path d="M266.681 147.946L135.34 221.748L4 147.946L21.8976 116.596C39.3724 85.9866 62.911 59.2659 91.0721 38.0702L135.34 4.75129L179.608 38.0702C207.77 59.2659 231.308 85.9865 248.783 116.596L266.681 147.946Z" fill="url(#paint0_linear_1_48)"/>
<path d="M69.9297 109.616H200.751V171.912L135.6 208.51L69.9297 171.912V109.616Z" fill="white"/>
<path d="M50.2298 5.72698C43.0702 16.9538 62.4946 70.9406 62.4946 70.9406L100.651 39.7927C100.651 39.7927 63.5702 0.456348 51.0787 5.04463C50.7227 5.17539 50.4337 5.40722 50.2298 5.72698Z" fill="white"/>
<path fill-rule="evenodd" clip-rule="evenodd" d="M53.741 9.3609C53.5818 9.98028 53.4364 10.8507 53.3649 12.0342C53.2344 14.1945 53.3746 16.9156 53.7632 20.0843C54.5391 26.4122 56.2338 33.9749 58.1927 41.3434C60.1438 48.6827 62.3204 55.6941 64.013 60.88C64.2663 61.6561 64.5085 62.3906 64.7373 63.0785L93.7453 39.3985C93.0442 38.6927 92.2524 37.9029 91.3832 37.0468C87.7587 33.477 82.8176 28.7846 77.5129 24.2493C72.1754 19.686 66.6184 15.4105 61.7458 12.5774C59.3044 11.1579 57.2014 10.1996 55.5018 9.70997C54.7534 9.49436 54.1757 9.39613 53.741 9.3609ZM100.651 39.7927C104.051 36.5878 104.049 36.5866 104.049 36.5866L104.018 36.5532L103.932 36.4628C103.857 36.3842 103.748 36.2697 103.607 36.1217C103.324 35.8258 102.91 35.3958 102.381 34.8524C101.323 33.7658 99.8026 32.2235 97.9403 30.3893C94.2218 26.7269 89.112 21.872 83.5852 17.1468C78.091 12.4496 72.0358 7.75129 66.4426 4.49924C63.6511 2.87616 60.8077 1.51413 58.0885 0.730774C55.4384 -0.0327014 52.3622 -0.404227 49.4678 0.658945C48.156 1.14077 47.0471 2.02837 46.2905 3.21478C44.7568 5.61978 44.2083 8.64446 44.0375 11.4708C43.8599 14.4117 44.0626 17.7502 44.4883 21.2216C45.3407 28.1737 47.1597 36.2127 49.162 43.7442C51.172 51.305 53.4041 58.492 55.1298 63.7794C55.9937 66.4261 56.733 68.604 57.2575 70.1234C57.5198 70.8833 57.7285 71.4789 57.8724 71.8865C57.9443 72.0903 58 72.2472 58.0381 72.3541L58.082 72.4768L58.0978 72.5209C58.0978 72.5209 58.0983 72.5223 62.4946 70.9406L58.0983 72.5223L60.3339 78.7357L107.492 40.239L104.051 36.5878L100.651 39.7927Z" fill="url(#paint1_linear_1_48)"/>
<path d="M226.8 22.1422C211.979 6.20921 176.704 46.5414 176.704 46.5414L214.601 88.0719C214.601 88.0719 237.183 33.3035 226.8 22.1422Z" fill="white"/>
<path fill-rule="evenodd" clip-rule="evenodd" d="M183.045 46.5592L212.976 79.3598C213.171 78.8383 213.374 78.2929 213.583 77.7255C215.514 72.4805 217.972 65.3987 220.105 57.9988C222.249 50.5586 224.008 42.9829 224.624 36.6967C224.933 33.5498 224.935 30.9083 224.634 28.8574C224.325 26.7459 223.765 25.7384 223.379 25.3244C221.312 23.102 218.434 22.4592 214.004 23.7252C209.446 25.0275 204.198 28.1618 199.017 32.0899C193.91 35.9621 189.202 40.3472 185.748 43.7951C184.724 44.8176 183.815 45.752 183.045 46.5592ZM214.601 88.0719C218.92 89.8529 218.921 89.8513 218.921 89.8513L218.94 89.8051L218.991 89.6792C219.036 89.5696 219.101 89.4094 219.185 89.2015C219.353 88.7857 219.595 88.1792 219.899 87.4059C220.507 85.8598 221.361 83.6449 222.351 80.9544C224.33 75.5815 226.868 68.2736 229.084 60.5863C231.287 52.9392 233.226 44.7301 233.924 37.6081C234.273 34.0509 234.332 30.5825 233.88 27.5019C233.437 24.4819 232.432 21.3363 230.221 18.9599C224.878 13.2158 217.789 12.9253 211.436 14.7405C205.211 16.5193 198.862 20.4806 193.371 24.6439C187.807 28.8631 182.77 33.5653 179.147 37.1817C177.328 38.9968 175.85 40.5543 174.822 41.6631C174.308 42.2179 173.906 42.6612 173.629 42.9693C173.49 43.1234 173.383 43.2437 173.309 43.3274C173.272 43.3693 173.243 43.4019 173.223 43.4251L173.189 43.4636C173.189 43.4636 173.187 43.4655 176.704 46.5414L173.187 43.4655L170.439 46.6074L216.113 96.6608L218.92 89.8529L214.601 88.0719Z" fill="url(#paint2_linear_1_48)"/>
<path d="M65.7766 39.7927L81.8697 52.5114L96.6649 45.7627L71.7466 27.3335L76.1592 39.7927H65.7766Z" fill="url(#paint3_linear_1_48)"/>
<path d="M206.721 39.7927L185.177 51.7327L201.529 67.8258L211.133 56.1453H201.529L206.721 39.7927Z" fill="url(#paint4_linear_1_48)"/>
<path d="M219.457 109.435C217.054 144.475 177.31 170.288 130.686 167.09C84.0619 163.893 48.2137 132.896 50.6168 97.8562C53.0198 62.8167 92.7641 37.0037 139.388 40.2012C186.012 43.3988 221.86 74.396 219.457 109.435Z" fill="white"/>
<path fill-rule="evenodd" clip-rule="evenodd" d="M196.461 160.003C178.646 171.574 155.119 177.612 130.082 175.895C105.045 174.178 82.563 164.984 66.4938 151.09C50.4215 137.192 40.3786 118.157 41.8122 97.2524C43.2459 76.3478 55.7935 58.8617 73.6126 47.2886C91.4282 35.7178 114.955 29.6796 139.992 31.3967C165.029 33.1137 187.511 42.3072 203.58 56.2019C219.652 70.0993 229.695 89.1347 228.262 110.039C226.828 130.944 214.28 148.43 196.461 160.003ZM130.686 167.09C177.31 170.288 217.054 144.475 219.457 109.435C221.86 74.396 186.012 43.3988 139.388 40.2012C92.7641 37.0037 53.0198 62.8167 50.6168 97.8562C48.2137 132.896 84.0619 163.893 130.686 167.09Z" fill="url(#paint5_linear_1_48)"/>
<path d="M78.4953 91.7058C79.274 88.0719 64.2192 80.9771 56.9514 76.3914L51.2409 87.5528C60.2392 89.4562 77.7166 95.3397 78.4953 91.7058Z" fill="url(#paint6_linear_1_48)"/>
<path d="M128.592 53.29C126.93 46.2299 130.495 37.7161 132.485 34.3417C128.072 32.1787 118.988 30.2406 117.949 39.7926C116.911 49.3446 121.497 60.3848 123.919 64.7109C126.775 68.2583 132.745 75.0936 133.783 74.0553C135.081 72.7575 130.668 62.1153 128.592 53.29Z" fill="url(#paint7_linear_1_48)"/>
<path d="M95.8862 62.6344C97.3398 61.3885 93.3771 53.2901 91.2141 49.3966L89.6567 45.7627L81.091 53.0305C85.4171 56.751 94.4327 63.8804 95.8862 62.6344Z" fill="url(#paint8_linear_1_48)"/>
<path d="M111.201 51.4731C110.993 45.4512 115.44 40.8309 117.69 39.2735L98.2223 44.984C99.4336 48.2718 102.22 55.5743 103.673 58.4814C105.49 62.1153 112.498 68.6045 114.056 68.0853C115.613 67.5662 111.46 59.0005 111.201 51.4731Z" fill="url(#paint9_linear_1_48)"/>
<path d="M155.042 55.0619C156.703 48.0017 153.139 39.4879 151.149 36.1136C155.561 33.9505 164.646 32.0125 165.685 41.5645C166.723 51.1165 162.137 62.1567 159.715 66.4828C156.859 70.0302 150.889 76.8654 149.851 75.8271C148.553 74.5293 152.966 63.8871 155.042 55.0619Z" fill="url(#paint10_linear_1_48)"/>
<path d="M186.709 66.4828C185.256 65.2369 189.219 57.1384 191.382 53.245L192.939 49.611L201.505 56.8789C197.179 60.5993 188.163 67.7287 186.709 66.4828Z" fill="url(#paint11_linear_1_48)"/>
<path d="M172.433 53.245C172.641 47.223 168.194 42.6028 165.944 41.0454L183.36 48.0988C182.149 51.3866 181.414 57.3461 179.961 60.2532C178.144 63.8872 171.135 70.3763 169.578 69.8572C168.021 69.338 172.174 60.7724 172.433 53.245Z" fill="url(#paint12_linear_1_48)"/>
<path d="M196.108 104.684C195.329 101.05 210.384 93.9554 217.652 89.3697L223.362 100.531C214.364 102.435 196.886 108.318 196.108 104.684Z" fill="url(#paint13_linear_1_48)"/>
<path fill-rule="evenodd" clip-rule="evenodd" d="M99.6881 137.433C103.133 137.145 106.041 137.185 107.799 137.563C109.06 137.835 109.863 139.078 109.591 140.339C109.319 141.6 108.077 142.402 106.815 142.131C105.761 141.904 103.422 141.809 100.077 142.089C96.8056 142.362 92.7611 142.977 88.3896 144.049C79.6133 146.201 69.7231 150.145 62.1056 156.675C61.126 157.514 59.6513 157.401 58.8116 156.421C57.972 155.442 58.0854 153.967 59.065 153.127C67.4368 145.951 78.0956 141.763 87.2768 139.511C91.8842 138.382 96.1706 137.727 99.6881 137.433Z" fill="url(#paint14_linear_1_48)"/>
<path fill-rule="evenodd" clip-rule="evenodd" d="M74.6722 124.095C87.5603 124.77 100.306 127.081 108.37 129.009C109.624 129.309 110.398 130.57 110.098 131.825C109.798 133.079 108.538 133.853 107.283 133.553C99.4263 131.675 86.9684 129.417 74.4277 128.76C61.7675 128.097 49.5131 129.098 41.7138 133.334C40.5801 133.95 39.1618 133.53 38.546 132.396C37.9301 131.263 38.3499 129.844 39.4837 129.229C48.5043 124.328 61.9036 123.426 74.6722 124.095Z" fill="url(#paint15_linear_1_48)"/>
<path fill-rule="evenodd" clip-rule="evenodd" d="M79.5231 108.793C92.1024 112.056 105.125 116.785 113.714 122.019C114.816 122.69 115.165 124.127 114.493 125.229C113.822 126.331 112.385 126.68 111.283 126.008C103.26 121.119 90.7411 116.53 78.3501 113.316C65.9174 110.091 54.039 108.363 47.2903 108.95C46.0049 109.062 44.8724 108.11 44.7606 106.825C44.6488 105.54 45.6002 104.407 46.8855 104.295C54.4648 103.636 66.9856 105.542 79.5231 108.793Z" fill="url(#paint16_linear_1_48)"/>
<path fill-rule="evenodd" clip-rule="evenodd" d="M173.588 137.433C170.143 137.145 167.235 137.185 165.477 137.563C164.216 137.835 163.414 139.078 163.685 140.339C163.957 141.6 165.2 142.402 166.461 142.131C167.515 141.904 169.854 141.809 173.199 142.089C176.47 142.362 180.515 142.977 184.887 144.049C193.663 146.201 203.553 150.145 211.171 156.675C212.15 157.514 213.625 157.401 214.465 156.421C215.304 155.442 215.191 153.967 214.211 153.127C205.839 145.951 195.181 141.763 185.999 139.511C181.392 138.382 177.106 137.727 173.588 137.433Z" fill="url(#paint17_linear_1_48)"/>
<path fill-rule="evenodd" clip-rule="evenodd" d="M198.604 124.095C185.716 124.77 172.97 127.081 164.907 129.009C163.652 129.309 162.878 130.57 163.178 131.825C163.478 133.079 164.738 133.853 165.993 133.553C173.85 131.675 186.308 129.417 198.848 128.76C211.509 128.097 223.763 129.098 231.562 133.334C232.696 133.95 234.114 133.53 234.73 132.396C235.346 131.263 234.926 129.844 233.792 129.229C224.772 124.328 211.373 123.426 198.604 124.095Z" fill="url(#paint18_linear_1_48)"/>
<path fill-rule="evenodd" clip-rule="evenodd" d="M193.753 108.793C181.174 112.056 168.151 116.785 159.562 122.019C158.46 122.69 158.111 124.127 158.783 125.229C159.454 126.331 160.892 126.68 161.993 126.008C170.017 121.119 182.535 116.53 194.926 113.316C207.359 110.091 219.237 108.363 225.986 108.95C227.271 109.062 228.404 108.11 228.516 106.825C228.627 105.54 227.676 104.407 226.391 104.295C218.811 103.636 206.291 105.542 193.753 108.793Z" fill="url(#paint19_linear_1_48)"/>
<path d="M134.821 125.524C129.889 124.486 122.761 119.077 123.141 115.66C123.66 110.988 147.54 112.602 147.54 115.66C147.54 118.718 145.619 124.486 134.821 125.524Z" fill="url(#paint20_linear_1_48)"/>
<path fill-rule="evenodd" clip-rule="evenodd" d="M125.451 116.561C125.451 116.561 125.455 116.556 125.467 116.547C125.457 116.556 125.451 116.561 125.451 116.561ZM125.85 116.336C126.236 116.162 126.834 115.972 127.676 115.805C129.717 115.401 132.532 115.258 135.448 115.356C138.353 115.453 141.183 115.782 143.228 116.245C143.909 116.399 144.445 116.555 144.839 116.698C144.664 117.579 144.237 118.613 143.335 119.575C142.089 120.906 139.676 122.377 134.988 122.897C133.084 122.404 130.63 121.097 128.625 119.469C127.575 118.616 126.759 117.763 126.249 117.024C126.05 116.735 125.927 116.507 125.85 116.336ZM132.225 127.465C129.821 126.59 127.341 125.114 125.353 123.499C124.052 122.443 122.849 121.238 121.975 119.97C121.147 118.768 120.364 117.146 120.561 115.374C120.76 113.579 122.049 112.506 123.061 111.934C124.11 111.341 125.394 110.965 126.668 110.713C129.25 110.202 132.503 110.063 135.622 110.167C138.752 110.272 141.924 110.627 144.373 111.182C145.577 111.454 146.747 111.805 147.675 112.27C148.135 112.5 148.671 112.825 149.126 113.289C149.588 113.76 150.135 114.562 150.135 115.66C150.135 117.706 149.493 120.594 147.124 123.124C145.081 125.305 141.958 127.003 137.417 127.794V132.963L137.415 133.006C137.419 133.03 137.442 133.163 137.557 133.426C137.712 133.784 137.981 134.253 138.387 134.814C139.198 135.935 140.416 137.234 141.902 138.506C144.939 141.106 148.628 143.197 151.568 143.649C152.985 143.867 153.957 145.192 153.739 146.609C153.521 148.026 152.196 148.998 150.779 148.78C146.467 148.117 141.894 145.333 138.526 142.45C137.117 141.243 135.839 139.953 134.815 138.684C133.754 140.011 132.427 141.329 130.969 142.543C127.657 145.3 123.293 147.824 119.201 148.582C117.791 148.843 116.437 147.912 116.176 146.502C115.915 145.093 116.846 143.738 118.255 143.477C121.159 142.94 124.723 140.988 127.648 138.553C129.087 137.356 130.278 136.118 131.099 135.002C131.94 133.858 132.192 133.114 132.225 132.808V127.465Z" fill="url(#paint21_linear_1_48)"/>
<path d="M116.299 98.5133C113.358 104.301 105.388 106.154 98.4979 102.652C91.608 99.1504 88.4072 91.62 91.3486 85.8325C94.2901 80.0449 102.26 78.1919 109.15 81.6937C116.04 85.1954 119.241 92.7258 116.299 98.5133Z" fill="url(#paint22_linear_1_48)"/>
<path fill-rule="evenodd" clip-rule="evenodd" d="M103.673 87.8123C105.107 87.8123 106.269 88.9744 106.269 90.408V94.4127C106.269 95.8462 105.107 97.0084 103.673 97.0084C102.24 97.0084 101.078 95.8462 101.078 94.4127V90.408C101.078 88.9744 102.24 87.8123 103.673 87.8123Z" fill="white"/>
<path fill-rule="evenodd" clip-rule="evenodd" d="M106.601 81.0467L93.3572 81.7178C91.0569 82.4076 88.9882 83.2144 87.4723 83.8609C86.6852 84.1966 86.053 84.4865 85.622 84.6903C85.4066 84.7922 85.2418 84.8723 85.1333 84.9257C85.0791 84.9524 85.0391 84.9724 85.0138 84.9851L84.9873 84.9985L84.9835 85.0004C83.7069 85.6516 82.1432 85.1454 81.4914 83.8689C80.8395 82.5922 81.3461 81.0287 82.6228 80.3769L83.792 82.6667C82.6228 80.3768 82.6228 80.3769 82.6228 80.3769L82.6297 80.3733L82.6425 80.3668L82.6855 80.3452C82.7218 80.327 82.7733 80.3013 82.8393 80.2688C82.9712 80.2038 83.161 80.1115 83.403 79.9971C83.8866 79.7685 84.5799 79.4507 85.4358 79.0857C87.1428 78.3577 89.5205 77.4314 92.1866 76.6502C96.8301 75.2896 102.98 74.1724 107.93 75.9889C110.58 76.9614 112.906 78.7773 114.856 80.7731C116.822 82.7845 118.526 85.103 119.913 87.2595C121.305 89.4233 122.41 91.4754 123.167 92.9843C123.546 93.7406 123.84 94.3651 124.041 94.8049C124.142 95.0249 124.22 95.1989 124.273 95.3205C124.3 95.3813 124.321 95.429 124.335 95.4627L124.352 95.5029L124.357 95.5149L124.359 95.5189L124.36 95.5204C124.36 95.5204 124.36 95.5215 121.97 96.5334L124.36 95.5215C124.919 96.8416 124.302 98.3648 122.982 98.9237C121.662 99.4824 120.139 98.8658 119.58 97.5465L119.58 97.5453M119.58 97.5453L119.578 97.5423L119.568 97.5181C119.558 97.4951 119.542 97.4585 119.52 97.409C119.477 97.31 119.41 97.1598 119.321 96.9648C119.142 96.5746 118.875 96.0065 118.526 95.3119C117.828 93.919 116.813 92.0363 115.547 90.0678C114.276 88.0921 112.784 86.081 111.143 84.4012C109.64 82.8625 108.107 81.7014 106.601 81.0467" fill="white"/>
<path d="M182.923 93.4086C183.146 99.8969 177.065 105.372 169.341 105.637C161.617 105.902 155.174 100.857 154.952 94.3691C154.729 87.8808 160.81 82.406 168.534 82.1408C176.258 81.8755 182.7 86.9203 182.923 93.4086Z" fill="url(#paint23_linear_1_48)"/>
<path fill-rule="evenodd" clip-rule="evenodd" d="M168.565 89.3697C169.998 89.3697 171.16 90.5319 171.16 91.9654V95.9701C171.16 97.4037 169.998 98.5658 168.565 98.5658C167.131 98.5658 165.969 97.4037 165.969 95.9701V91.9654C165.969 90.5319 167.131 89.3697 168.565 89.3697Z" fill="white"/>
<path fill-rule="evenodd" clip-rule="evenodd" d="M167.18 82.4978L180.215 84.9359C182.402 85.9274 184.344 87.0039 185.76 87.8475C186.495 88.2856 187.082 88.6575 187.482 88.9172C187.682 89.047 187.835 89.1485 187.935 89.2159C187.985 89.2496 188.022 89.2748 188.045 89.2907L188.07 89.3076L188.073 89.3099C189.251 90.1263 190.869 89.834 191.686 88.6562C192.502 87.4782 192.21 85.861 191.032 85.0441L189.567 87.1568C191.032 85.0441 191.032 85.0441 191.032 85.0441L191.025 85.0397L191.014 85.0315L190.974 85.0043C190.94 84.9814 190.893 84.949 190.832 84.908C190.71 84.826 190.534 84.7091 190.31 84.5633C189.861 84.272 189.216 83.8643 188.417 83.388C186.823 82.438 184.591 81.2018 182.053 80.0706C177.633 78.1006 171.689 76.1702 166.54 77.3076C163.783 77.9166 161.235 79.4048 159.036 81.1215C156.819 82.8517 154.819 84.9212 153.156 86.8726C151.487 88.8306 150.117 90.7162 149.165 92.1102C148.688 92.809 148.313 93.3885 148.054 93.7973C147.925 94.0018 147.825 94.164 147.756 94.2773C147.721 94.3339 147.694 94.3784 147.675 94.41L147.653 94.4474L147.644 94.4624L147.643 94.4638C147.643 94.4638 147.643 94.4648 149.876 95.7876L147.643 94.4648C146.912 95.6982 147.32 97.2904 148.553 98.0209C149.786 98.7513 151.378 98.3441 152.109 97.1115L152.109 97.1104M152.109 97.1104L152.124 97.085C152.137 97.0635 152.158 97.0294 152.186 96.9832C152.243 96.891 152.329 96.7511 152.443 96.5698C152.673 96.207 153.014 95.6798 153.452 95.0381C154.331 93.7513 155.589 92.0213 157.107 90.2401C158.631 88.4523 160.378 86.659 162.23 85.2141C163.926 83.8905 165.6 82.9451 167.18 82.4978" fill="url(#paint24_linear_1_48)"/>
<path fill-rule="evenodd" clip-rule="evenodd" d="M41.5914 123.34C39.6627 124.236 37.8095 125.385 36.7126 126.157C35.892 126.734 34.7586 126.537 34.1811 125.716C33.6036 124.896 33.8007 123.762 34.6213 123.185C35.8606 122.313 37.9009 121.047 40.0604 120.044C41.1415 119.542 42.2893 119.088 43.4067 118.787C44.5024 118.491 45.6921 118.308 46.8089 118.457C47.8036 118.59 48.5024 119.503 48.3698 120.498C48.2372 121.493 47.3233 122.192 46.3286 122.059C45.8881 122 45.2283 122.059 44.3529 122.295C43.4993 122.526 42.5544 122.893 41.5914 123.34ZM223.792 131.629C224.25 130.736 225.345 130.383 226.238 130.84L236.88 136.291C237.773 136.749 238.126 137.844 237.669 138.737C237.211 139.63 236.117 139.983 235.223 139.526L224.581 134.075C223.688 133.617 223.335 132.522 223.792 131.629ZM50.0379 132.74C50.4555 133.652 50.0543 134.73 49.1418 135.148L33.8274 142.156C32.9149 142.574 31.8367 142.173 31.4192 141.26C31.0016 140.348 31.4028 139.27 32.3153 138.852L47.6296 131.844C48.5421 131.426 49.6203 131.827 50.0379 132.74ZM221.595 141.005C222.178 140.189 223.313 140 224.13 140.583L238.665 150.966C239.482 151.549 239.671 152.684 239.088 153.5C238.504 154.317 237.37 154.506 236.553 153.923L222.017 143.54C221.201 142.957 221.012 141.822 221.595 141.005ZM53.0888 147.928C53.5761 148.805 53.2601 149.911 52.3829 150.399C49.9936 151.726 43.6352 154.984 37.1016 157.513C36.1658 157.875 35.1135 157.41 34.7513 156.474C34.389 155.539 34.854 154.486 35.7898 154.124C42.1306 151.67 48.3352 148.49 50.6181 147.222C51.4953 146.735 52.6015 147.051 53.0888 147.928ZM216.851 151.756C217.374 150.9 218.492 150.63 219.349 151.153L228.693 156.864C229.549 157.387 229.819 158.505 229.296 159.362C228.773 160.218 227.654 160.488 226.798 159.965L217.454 154.254C216.598 153.731 216.328 152.613 216.851 151.756Z" fill="white"/>
</g>
<defs>
<filter id="filter0_d_1_48" x="0" y="0" width="270.681" height="229.748" filterUnits="userSpaceOnUse" color-interpolation-filters="sRGB">
<feFlood flood-opacity="0" result="BackgroundImageFix"/>
<feColorMatrix in="SourceAlpha" type="matrix" values="0 0 0 0 0 0 0 0 0 0 0 0 0 0 0 0 0 0 127 0" result="hardAlpha"/>
<feOffset dy="4"/>
<feGaussianBlur stdDeviation="2"/>
<feComposite in2="hardAlpha" operator="out"/>
<feColorMatrix type="matrix" values="0 0 0 0 0 0 0 0 0 0 0 0 0 0 0 0 0 0 0.25 0"/>
<feBlend mode="normal" in2="BackgroundImageFix" result="effect1_dropShadow_1_48"/>
<feBlend mode="normal" in="SourceGraphic" in2="effect1_dropShadow_1_48" result="shape"/>
</filter>
<linearGradient id="paint0_linear_1_48" x1="135.34" y1="0" x2="135.34" y2="221.748" gradientUnits="userSpaceOnUse">
<stop offset="0.473958" stop-color="#0A0131"/>
<stop offset="0.697917" stop-color="#310026"/>
</linearGradient>
<linearGradient id="paint1_linear_1_48" x1="130.854" y1="13.159" x2="130.854" y2="199.794" gradientUnits="userSpaceOnUse">
<stop offset="0.473958" stop-color="#0A0131"/>
<stop offset="0.697917" stop-color="#310026"/>
</linearGradient>
<linearGradient id="paint2_linear_1_48" x1="223.756" y1="42.25" x2="223.756" y2="202.045" gradientUnits="userSpaceOnUse">
<stop offset="0.473958" stop-color="#0A0131"/>
<stop offset="0.697917" stop-color="#310026"/>
</linearGradient>
<linearGradient id="paint3_linear_1_48" x1="135.34" y1="0" x2="135.34" y2="221.748" gradientUnits="userSpaceOnUse">
<stop offset="0.473958" stop-color="#0A0131"/>
<stop offset="0.697917" stop-color="#310026"/>
</linearGradient>
<linearGradient id="paint4_linear_1_48" x1="135.34" y1="0" x2="135.34" y2="221.748" gradientUnits="userSpaceOnUse">
<stop offset="0.473958" stop-color="#0A0131"/>
<stop offset="0.697917" stop-color="#310026"/>
</linearGradient>
<linearGradient id="paint5_linear_1_48" x1="141.461" y1="13.8984" x2="127.022" y2="207.686" gradientUnits="userSpaceOnUse">
<stop offset="0.473958" stop-color="#0A0131"/>
<stop offset="0.697917" stop-color="#310026"/>
</linearGradient>
<linearGradient id="paint6_linear_1_48" x1="240.406" y1="89.0529" x2="240.406" y2="114.236" gradientUnits="userSpaceOnUse">
<stop offset="0.473958" stop-color="#0A0131"/>
<stop offset="0.697917" stop-color="#310026"/>
</linearGradient>
<linearGradient id="paint7_linear_1_48" x1="135.34" y1="0" x2="135.34" y2="221.748" gradientUnits="userSpaceOnUse">
<stop offset="0.473958" stop-color="#0A0131"/>
<stop offset="0.697917" stop-color="#310026"/>
</linearGradient>
<linearGradient id="paint8_linear_1_48" x1="135.34" y1="0" x2="135.34" y2="221.748" gradientUnits="userSpaceOnUse">
<stop offset="0.473958" stop-color="#0A0131"/>
<stop offset="0.697917" stop-color="#310026"/>
</linearGradient>
<linearGradient id="paint9_linear_1_48" x1="135.34" y1="0" x2="135.34" y2="221.748" gradientUnits="userSpaceOnUse">
<stop offset="0.473958" stop-color="#0A0131"/>
<stop offset="0.697917" stop-color="#310026"/>
</linearGradient>
<linearGradient id="paint10_linear_1_48" x1="135.34" y1="0" x2="135.34" y2="221.748" gradientUnits="userSpaceOnUse">
<stop offset="0.473958" stop-color="#0A0131"/>
<stop offset="0.697917" stop-color="#310026"/>
</linearGradient>
<linearGradient id="paint11_linear_1_48" x1="240.406" y1="89.0529" x2="240.406" y2="114.236" gradientUnits="userSpaceOnUse">
<stop offset="0.473958" stop-color="#0A0131"/>
<stop offset="0.697917" stop-color="#310026"/>
</linearGradient>
<linearGradient id="paint12_linear_1_48" x1="135.34" y1="0" x2="135.34" y2="221.748" gradientUnits="userSpaceOnUse">
<stop offset="0.473958" stop-color="#0A0131"/>
<stop offset="0.697917" stop-color="#310026"/>
</linearGradient>
<linearGradient id="paint13_linear_1_48" x1="240.406" y1="89.0529" x2="240.406" y2="114.236" gradientUnits="userSpaceOnUse">
<stop offset="0.473958" stop-color="#0A0131"/>
<stop offset="0.697917" stop-color="#310026"/>
</linearGradient>
<linearGradient id="paint14_linear_1_48" x1="135.339" y1="25.9111" x2="135.339" y2="195.838" gradientUnits="userSpaceOnUse">
<stop offset="0.473958" stop-color="#0A0131"/>
<stop offset="0.697917" stop-color="#310026"/>
</linearGradient>
<linearGradient id="paint15_linear_1_48" x1="135.34" y1="53.3149" x2="135.34" y2="168.43" gradientUnits="userSpaceOnUse">
<stop offset="0.473958" stop-color="#0A0131"/>
<stop offset="0.697917" stop-color="#310026"/>
</linearGradient>
<linearGradient id="paint16_linear_1_48" x1="135.34" y1="23.3454" x2="135.34" y2="198.394" gradientUnits="userSpaceOnUse">
<stop offset="0.473958" stop-color="#0A0131"/>
<stop offset="0.697917" stop-color="#310026"/>
</linearGradient>
<linearGradient id="paint17_linear_1_48" x1="135.339" y1="25.9111" x2="135.339" y2="195.838" gradientUnits="userSpaceOnUse">
<stop offset="0.473958" stop-color="#0A0131"/>
<stop offset="0.697917" stop-color="#310026"/>
</linearGradient>
<linearGradient id="paint18_linear_1_48" x1="135.34" y1="53.3149" x2="135.34" y2="168.43" gradientUnits="userSpaceOnUse">
<stop offset="0.473958" stop-color="#0A0131"/>
<stop offset="0.697917" stop-color="#310026"/>
</linearGradient>
<linearGradient id="paint19_linear_1_48" x1="135.34" y1="23.3454" x2="135.34" y2="198.394" gradientUnits="userSpaceOnUse">
<stop offset="0.473958" stop-color="#0A0131"/>
<stop offset="0.697917" stop-color="#310026"/>
</linearGradient>
<linearGradient id="paint20_linear_1_48" x1="135.34" y1="0" x2="135.34" y2="221.748" gradientUnits="userSpaceOnUse">
<stop offset="0.473958" stop-color="#0A0131"/>
<stop offset="0.697917" stop-color="#310026"/>
</linearGradient>
<linearGradient id="paint21_linear_1_48" x1="135.341" y1="14.8824" x2="135.341" y2="206.864" gradientUnits="userSpaceOnUse">
<stop offset="0.473958" stop-color="#0A0131"/>
<stop offset="0.697917" stop-color="#310026"/>
</linearGradient>
<linearGradient id="paint22_linear_1_48" x1="135.34" y1="0" x2="135.34" y2="221.748" gradientUnits="userSpaceOnUse">
<stop offset="0.473958" stop-color="#0A0131"/>
<stop offset="0.697917" stop-color="#310026"/>
</linearGradient>
<linearGradient id="paint23_linear_1_48" x1="135.34" y1="0" x2="135.34" y2="221.748" gradientUnits="userSpaceOnUse">
<stop offset="0.473958" stop-color="#0A0131"/>
<stop offset="0.697917" stop-color="#310026"/>
</linearGradient>
<linearGradient id="paint24_linear_1_48" x1="184.614" y1="12.7187" x2="155.138" y2="57.372" gradientUnits="userSpaceOnUse">
<stop offset="0.473958" stop-color="#0A0131"/>
<stop offset="0.697917" stop-color="#310026"/>
</linearGradient>
</defs>
</svg>
