<svg width="70" height="60" viewBox="0 0 70 60" fill="none" xmlns="http://www.w3.org/2000/svg">
<path d="M69.9719 39.4094L34.986 59.0685L0 39.4094L4.7675 31.0585C9.42238 22.9048 15.6925 15.7871 23.194 10.141L34.986 1.26563L46.778 10.141C54.2794 15.7871 60.5495 22.9048 65.2044 31.0584L69.9719 39.4094Z" fill="url(#paint0_linear_2_5)"/>
<path d="M17.5621 29.1991H52.4098V45.7932L35.0551 55.5423L17.5621 45.7932V29.1991Z" fill="white"/>
<path d="M12.3145 1.52553C10.4074 4.5161 15.5816 18.8969 15.5816 18.8969L25.7455 10.5998C25.7455 10.5998 15.8681 0.121561 12.5407 1.34377C12.4458 1.3786 12.3689 1.44036 12.3145 1.52553Z" fill="white"/>
<path fill-rule="evenodd" clip-rule="evenodd" d="M13.2498 2.49352C13.2074 2.65851 13.1687 2.89037 13.1497 3.20562C13.1149 3.78108 13.1522 4.50592 13.2557 5.34998C13.4624 7.03559 13.9138 9.05012 14.4357 11.0129C14.9554 12.9679 15.5352 14.8356 15.9861 16.217C16.0535 16.4237 16.118 16.6194 16.179 16.8026L23.906 10.4948C23.7193 10.3068 23.5084 10.0964 23.2768 9.8684C22.3114 8.91749 20.9952 7.66753 19.5821 6.45943C18.1603 5.24388 16.6801 4.10499 15.3821 3.35033C14.7318 2.97221 14.1716 2.71693 13.7189 2.58651C13.5195 2.52907 13.3656 2.50291 13.2498 2.49352ZM25.7455 10.5998C26.6511 9.74614 26.6508 9.74582 26.6508 9.74582L26.6424 9.73693L26.6196 9.71283C26.5997 9.69191 26.5706 9.6614 26.5329 9.62198C26.4575 9.54314 26.3473 9.42862 26.2064 9.28386C25.9246 8.99441 25.5196 8.5836 25.0235 8.095C24.033 7.11942 22.6718 5.8262 21.1996 4.56751C19.7361 3.31627 18.1231 2.06476 16.6332 1.19849C15.8896 0.766143 15.1322 0.403328 14.4079 0.194661C13.702 -0.00871089 12.8826 -0.107677 12.1116 0.175527C11.7621 0.303875 11.4667 0.540311 11.2652 0.856343C10.8567 1.49698 10.7105 2.30268 10.6651 3.05554C10.6177 3.83894 10.6717 4.72825 10.7851 5.65293C11.0122 7.50481 11.4967 9.64622 12.0301 11.6524C12.5655 13.6665 13.1601 15.5809 13.6198 16.9893C13.8499 17.6944 14.0468 18.2745 14.1865 18.6792C14.2564 18.8816 14.312 19.0403 14.3503 19.1489C14.3695 19.2032 14.3843 19.245 14.3945 19.2734L14.4062 19.3061L14.4104 19.3179C14.4104 19.3179 14.4105 19.3183 15.5816 18.8969L14.4104 19.3179L15.006 20.9733L27.5679 10.7187L26.6508 9.74582L25.7455 10.5998Z" fill="url(#paint1_linear_2_5)"/>
<path d="M59.3488 5.89816C55.4007 1.65399 46.0043 12.3975 46.0043 12.3975L56.0991 23.4603C56.0991 23.4603 62.1145 8.87127 59.3488 5.89816Z" fill="white"/>
<path fill-rule="evenodd" clip-rule="evenodd" d="M47.6935 12.4023L55.6663 21.1396C55.7183 21.0007 55.7723 20.8554 55.8279 20.7043C56.3424 19.3071 56.9972 17.4207 57.5652 15.4495C58.1363 13.4676 58.6051 11.4496 58.7692 9.77514C58.8513 8.93687 58.8519 8.23324 58.7718 7.68693C58.6894 7.12448 58.5401 6.85611 58.4375 6.74583C57.8869 6.15384 57.1202 5.98261 55.9401 6.31984C54.7261 6.66675 53.328 7.50166 51.948 8.54799C50.5876 9.57946 49.3336 10.7475 48.4135 11.666C48.1406 11.9383 47.8986 12.1873 47.6935 12.4023ZM56.0991 23.4603C57.2497 23.9347 57.2499 23.9343 57.2499 23.9343L57.2549 23.922L57.2687 23.8884C57.2806 23.8592 57.2979 23.8166 57.3202 23.7612C57.3649 23.6504 57.4295 23.4889 57.5105 23.2829C57.6724 22.871 57.8998 22.281 58.1637 21.5643C58.6907 20.1331 59.3669 18.1865 59.957 16.1388C60.544 14.1018 61.0605 11.915 61.2464 10.0179C61.3393 9.07036 61.3549 8.14645 61.2346 7.32585C61.1167 6.5214 60.8489 5.68349 60.26 5.05048C58.8367 3.52039 56.9483 3.443 55.2562 3.92651C53.598 4.40034 51.9067 5.45554 50.4441 6.56457C48.9618 7.68846 47.6201 8.94101 46.655 9.90433C46.1706 10.3878 45.7769 10.8027 45.5031 11.0981C45.3661 11.2458 45.2589 11.3639 45.1852 11.446C45.1483 11.4871 45.1197 11.5191 45.1 11.5414C45.0901 11.5526 45.0824 11.5613 45.077 11.5674L45.068 11.5777C45.068 11.5777 45.0675 11.5782 46.0043 12.3975L45.068 11.5777L44.3356 12.4151L56.502 25.7482L57.2499 23.9343L56.0991 23.4603Z" fill="url(#paint2_linear_2_5)"/>
<path d="M16.4558 10.5998L20.7426 13.9878L24.6838 12.1901L18.0461 7.281L19.2215 10.5998H16.4558Z" fill="url(#paint3_linear_2_5)"/>
<path d="M54.0001 10.5998L48.2613 13.7804L52.6172 18.0672L55.1755 14.9558H52.6172L54.0001 10.5998Z" fill="url(#paint4_linear_2_5)"/>
<path d="M57.3927 29.151C56.7526 38.4847 46.1657 45.3607 33.7461 44.509C21.3266 43.6572 11.7775 35.4003 12.4176 26.0666C13.0577 16.7329 23.6447 9.85692 36.0642 10.7087C48.4837 11.5604 58.0328 19.8173 57.3927 29.151Z" fill="white"/>
<path fill-rule="evenodd" clip-rule="evenodd" d="M51.2671 42.6211C46.5215 45.7033 40.2546 47.3117 33.5853 46.8543C26.916 46.3969 20.9273 43.948 16.6469 40.2468C12.3656 36.5448 9.6904 31.4743 10.0723 25.9058C10.4542 20.3373 13.7966 15.6794 18.5432 12.5966C23.2888 9.51438 29.5558 7.90595 36.225 8.36334C42.8943 8.82073 48.883 11.2697 53.1634 14.9709C57.4447 18.6728 60.1199 23.7434 59.738 29.3119C59.3561 34.8804 56.0137 39.5382 51.2671 42.6211ZM33.7461 44.509C46.1657 45.3607 56.7526 38.4847 57.3927 29.151C58.0328 19.8173 48.4837 11.5604 36.0642 10.7087C23.6447 9.85692 13.0577 16.7329 12.4176 26.0666C11.7775 35.4003 21.3266 43.6572 33.7461 44.509Z" fill="url(#paint5_linear_2_5)"/>
<path d="M19.8438 24.4283C20.0512 23.4603 16.041 21.5704 14.105 20.3489L12.5839 23.322C14.9808 23.829 19.6364 25.3963 19.8438 24.4283Z" fill="url(#paint6_linear_2_5)"/>
<path d="M33.1883 14.1952C32.7458 12.3146 33.6953 10.0467 34.2254 9.14784C33.05 8.57165 30.63 8.05539 30.3534 10.5998C30.0769 13.1443 31.2984 16.0851 31.9437 17.2375C32.7043 18.1824 34.2946 20.0032 34.5711 19.7266C34.9168 19.3809 33.7414 16.5461 33.1883 14.1952Z" fill="url(#paint7_linear_2_5)"/>
<path d="M24.4763 16.6843C24.8635 16.3525 23.808 14.1952 23.2318 13.1581L22.8169 12.1901L20.5352 14.1261C21.6876 15.1171 24.0891 17.0162 24.4763 16.6843Z" fill="url(#paint8_linear_2_5)"/>
<path d="M28.5557 13.7112C28.5004 12.1071 29.685 10.8764 30.2843 10.4615L25.0986 11.9827C25.4213 12.8585 26.1634 14.8037 26.5506 15.5781C27.0346 16.5461 28.9014 18.2746 29.3163 18.1363C29.7311 17.9981 28.6249 15.7164 28.5557 13.7112Z" fill="url(#paint9_linear_2_5)"/>
<path d="M40.2341 14.6672C40.6766 12.7865 39.7271 10.5187 39.197 9.61981C40.3724 9.04363 42.7924 8.52737 43.069 11.0718C43.3455 13.6162 42.124 16.5571 41.4787 17.7095C40.7181 18.6544 39.1278 20.4751 38.8513 20.1986C38.5056 19.8529 39.681 17.018 40.2341 14.6672Z" fill="url(#paint10_linear_2_5)"/>
<path d="M48.6695 17.7095C48.2823 17.3776 49.3379 15.2203 49.9141 14.1832L50.3289 13.2152L52.6106 15.1512C51.4582 16.1422 49.0567 18.0413 48.6695 17.7095Z" fill="url(#paint11_linear_2_5)"/>
<path d="M44.8667 14.1832C44.922 12.5791 43.7374 11.3484 43.1381 10.9335L47.7773 12.8124C47.4546 13.6882 47.259 15.2757 46.8718 16.05C46.3878 17.018 44.521 18.7466 44.1061 18.6083C43.6913 18.47 44.7976 16.1883 44.8667 14.1832Z" fill="url(#paint12_linear_2_5)"/>
<path d="M51.173 27.8854C50.9656 26.9174 54.9758 25.0275 56.9118 23.806L58.4329 26.7791C56.036 27.2862 51.3804 28.8534 51.173 27.8854Z" fill="url(#paint13_linear_2_5)"/>
<path fill-rule="evenodd" clip-rule="evenodd" d="M25.4891 36.6089C26.4067 36.5322 27.1814 36.5428 27.6496 36.6436C27.9856 36.716 28.1993 37.047 28.1269 37.383C28.0546 37.719 27.7235 37.9327 27.3876 37.8603C27.1067 37.7998 26.4836 37.7747 25.5928 37.8491C24.7212 37.922 23.6439 38.0858 22.4794 38.3713C20.1416 38.9446 17.5071 39.9952 15.478 41.7345C15.217 41.9581 14.8242 41.9279 14.6005 41.667C14.3769 41.406 14.4071 41.0132 14.668 40.7895C16.8981 38.8781 19.7373 37.7623 22.183 37.1626C23.4103 36.8616 24.5521 36.6872 25.4891 36.6089Z" fill="url(#paint14_linear_2_5)"/>
<path fill-rule="evenodd" clip-rule="evenodd" d="M18.8254 33.0559C22.2585 33.2358 25.6537 33.8514 27.8016 34.3651C28.1359 34.445 28.342 34.7807 28.2621 35.115C28.1822 35.4492 27.8464 35.6554 27.5122 35.5755C25.4193 35.075 22.1008 34.4738 18.7603 34.2987C15.3879 34.122 12.1236 34.3886 10.0461 35.5171C9.74409 35.6811 9.36628 35.5693 9.20224 35.2673C9.03819 34.9653 9.15002 34.5875 9.45201 34.4235C11.8549 33.1182 15.4242 32.8777 18.8254 33.0559Z" fill="url(#paint15_linear_2_5)"/>
<path fill-rule="evenodd" clip-rule="evenodd" d="M20.1176 28.98C23.4684 29.8491 26.9374 31.1087 29.2253 32.5029C29.5187 32.6817 29.6117 33.0646 29.4328 33.3581C29.254 33.6516 28.8711 33.7445 28.5776 33.5657C26.4404 32.2633 23.1058 31.0407 19.8051 30.1847C16.4933 29.3258 13.3292 28.8654 11.5315 29.0217C11.1891 29.0515 10.8874 28.798 10.8577 28.4557C10.8279 28.1133 11.0813 27.8116 11.4237 27.7818C13.4426 27.6062 16.7779 28.1138 20.1176 28.98Z" fill="url(#paint16_linear_2_5)"/>
<path fill-rule="evenodd" clip-rule="evenodd" d="M45.1743 36.6089C44.2566 36.5322 43.4819 36.5428 43.0137 36.6436C42.6777 36.716 42.464 37.047 42.5364 37.383C42.6088 37.719 42.9398 37.9327 43.2758 37.8603C43.5566 37.7998 44.1797 37.7747 45.0706 37.8491C45.9421 37.922 47.0195 38.0858 48.1839 38.3713C50.5217 38.9446 53.1562 39.9952 55.1854 41.7345C55.4463 41.9581 55.8391 41.9279 56.0628 41.667C56.2865 41.406 56.2562 41.0132 55.9953 40.7895C53.7653 38.8781 50.926 37.7623 48.4803 37.1626C47.2531 36.8616 46.1113 36.6872 45.1743 36.6089Z" fill="url(#paint17_linear_2_5)"/>
<path fill-rule="evenodd" clip-rule="evenodd" d="M51.8379 33.0559C48.4048 33.2358 45.0096 33.8514 42.8617 34.3651C42.5275 34.445 42.3213 34.7807 42.4012 35.115C42.4812 35.4492 42.8169 35.6554 43.1512 35.5755C45.244 35.075 48.5625 34.4738 51.903 34.2987C55.2754 34.122 58.5397 34.3886 60.6173 35.5171C60.9193 35.6811 61.2971 35.5693 61.4611 35.2673C61.6251 34.9653 61.5133 34.5875 61.2113 34.4235C58.8084 33.1182 55.2392 32.8777 51.8379 33.0559Z" fill="url(#paint18_linear_2_5)"/>
<path fill-rule="evenodd" clip-rule="evenodd" d="M50.5458 28.98C47.1949 29.8491 43.726 31.1087 41.4381 32.5029C41.1446 32.6817 41.0517 33.0646 41.2305 33.3581C41.4093 33.6516 41.7922 33.7445 42.0857 33.5657C44.2229 32.2633 47.5576 31.0407 50.8582 30.1847C54.17 29.3258 57.3341 28.8654 59.1318 29.0217C59.4742 29.0515 59.7759 28.798 59.8057 28.4557C59.8354 28.1133 59.582 27.8116 59.2396 27.7818C57.2207 27.6062 53.8855 28.1138 50.5458 28.98Z" fill="url(#paint19_linear_2_5)"/>
<path d="M34.8477 33.4367C33.534 33.1601 31.6352 31.7192 31.7363 30.8092C31.8746 29.5647 38.2356 29.9946 38.2356 30.8092C38.2356 31.6238 37.724 33.1601 34.8477 33.4367Z" fill="url(#paint20_linear_2_5)"/>
<path fill-rule="evenodd" clip-rule="evenodd" d="M32.458 30.9891C32.5608 30.943 32.7202 30.8923 32.9445 30.8479C33.4881 30.7402 34.2379 30.7021 35.0147 30.7281C35.7884 30.7539 36.5424 30.8417 37.087 30.9649C37.2686 31.006 37.4111 31.0476 37.5163 31.0856C37.4695 31.3203 37.3557 31.5957 37.1156 31.852C36.7837 32.2065 36.1408 32.5985 34.8921 32.737C34.3849 32.6054 33.7313 32.2573 33.1973 31.8237C32.9174 31.5965 32.7001 31.3694 32.5643 31.1723C32.5113 31.0955 32.4785 31.0347 32.458 30.9891ZM34.1562 33.9538C33.5158 33.7206 32.8553 33.3273 32.3256 32.8972C31.9792 32.6159 31.6586 32.2949 31.4258 31.9572C31.2051 31.6371 30.9966 31.205 31.0491 30.7329C31.1022 30.2547 31.4455 29.9689 31.7151 29.8165C31.9946 29.6586 32.3364 29.5586 32.6758 29.4914C33.3638 29.3551 34.2302 29.3182 35.0609 29.346C35.8948 29.3739 36.7397 29.4686 37.3921 29.6162C37.7127 29.6887 38.0244 29.7822 38.2718 29.9061C38.3941 29.9674 38.537 30.0538 38.6581 30.1774C38.7812 30.3031 38.9271 30.5166 38.9271 30.8092C38.9271 31.3541 38.756 32.1235 38.1249 32.7973C37.5808 33.3783 36.7488 33.8307 35.5391 34.0413V35.4181L35.5385 35.4298C35.5397 35.436 35.5458 35.4714 35.5763 35.5416C35.6179 35.637 35.6895 35.7618 35.7976 35.9113C36.0137 36.21 36.338 36.556 36.7337 36.8947C37.5428 37.5872 38.5254 38.1443 39.3087 38.2648C39.6861 38.3228 39.945 38.6758 39.887 39.0532C39.829 39.4306 39.476 39.6896 39.0986 39.6315C37.9498 39.4549 36.7318 38.7133 35.8345 37.9453C35.4591 37.624 35.1188 37.2803 34.846 36.9422C34.5634 37.2957 34.2101 37.6468 33.8216 37.9701C32.9393 38.7044 31.7768 39.3769 30.6868 39.5787C30.3113 39.6483 29.9505 39.4002 29.881 39.0248C29.8115 38.6493 30.0595 38.2885 30.435 38.219C31.2085 38.0757 32.1576 37.5559 32.9369 36.9072C33.3201 36.5883 33.6374 36.2585 33.8561 35.9613C34.0802 35.6566 34.1474 35.4585 34.1562 35.3769V33.9538Z" fill="url(#paint21_linear_2_5)"/>
<path d="M29.9139 26.2416C29.1303 27.7833 27.0073 28.2769 25.172 27.3441C23.3367 26.4113 22.4841 24.4054 23.2676 22.8638C24.0512 21.3221 26.1741 20.8285 28.0095 21.7613C29.8448 22.6941 30.6974 24.7 29.9139 26.2416Z" fill="url(#paint22_linear_2_5)"/>
<path fill-rule="evenodd" clip-rule="evenodd" d="M26.5506 23.3911C26.9325 23.3911 27.242 23.7007 27.242 24.0826V25.1493C27.242 25.5312 26.9325 25.8408 26.5506 25.8408C26.1687 25.8408 25.8592 25.5312 25.8592 25.1493V24.0826C25.8592 23.7007 26.1687 23.3911 26.5506 23.3911Z" fill="white"/>
<path fill-rule="evenodd" clip-rule="evenodd" d="M27.3305 21.5889L23.8027 21.7677C23.1899 21.9515 22.6389 22.1664 22.2351 22.3386C22.0254 22.428 21.857 22.5052 21.7422 22.5595C21.6848 22.5866 21.6409 22.608 21.612 22.6222C21.5976 22.6293 21.5869 22.6347 21.5802 22.638L21.5731 22.6416L21.5721 22.6421C21.232 22.8156 20.8155 22.6807 20.6419 22.3407C20.4682 22.0006 20.6032 21.5842 20.9433 21.4105L21.2547 22.0205C20.9433 21.4105 20.9433 21.4105 20.9433 21.4105L20.9451 21.4096L20.9485 21.4078L20.96 21.4021C20.9696 21.3972 20.9834 21.3904 21.0009 21.3817C21.0361 21.3644 21.0866 21.3398 21.1511 21.3094C21.2799 21.2485 21.4646 21.1638 21.6926 21.0666C22.1473 20.8727 22.7807 20.6259 23.4908 20.4178C24.7278 20.0554 26.3659 19.7578 27.6845 20.2417C28.3905 20.5007 29.01 20.9844 29.5294 21.5161C30.053 22.0519 30.507 22.6694 30.8765 23.2439C31.2472 23.8203 31.5416 24.3669 31.7432 24.7688C31.8443 24.9703 31.9226 25.1367 31.9762 25.2538C32.003 25.3124 32.0237 25.3588 32.0379 25.3911C32.045 25.4073 32.0506 25.42 32.0544 25.429L32.059 25.4397L32.0604 25.4429L32.0608 25.444C32.0608 25.444 32.0611 25.4447 31.4244 25.7142L32.0608 25.444C32.2097 25.7956 32.0456 26.2021 31.694 26.351C31.3424 26.4998 30.9368 26.3355 30.7878 25.9841M30.7878 25.9841L30.7874 25.983L30.7846 25.9765C30.7819 25.9704 30.7777 25.9606 30.7719 25.9475C30.7603 25.9211 30.7425 25.8811 30.7188 25.8292C30.6712 25.7252 30.6 25.5739 30.5072 25.3889C30.321 25.0178 30.0507 24.5163 29.7134 23.992C29.3749 23.4657 28.9776 22.93 28.5404 22.4825C28.1399 22.0726 27.7315 21.7633 27.3305 21.5889" fill="white"/>
<path d="M47.6609 24.8819C47.7203 26.6102 46.1005 28.0685 44.0429 28.1392C41.9854 28.2099 40.2693 26.866 40.21 25.1377C40.1506 23.4094 41.7705 21.951 43.828 21.8804C45.8855 21.8097 47.6016 23.1535 47.6609 24.8819Z" fill="url(#paint23_linear_2_5)"/>
<path fill-rule="evenodd" clip-rule="evenodd" d="M43.8362 23.806C44.218 23.806 44.5276 24.1156 44.5276 24.4974V25.5642C44.5276 25.9461 44.218 26.2556 43.8362 26.2556C43.4543 26.2556 43.1447 25.9461 43.1447 25.5642V24.4974C43.1447 24.1156 43.4543 23.806 43.8362 23.806Z" fill="white"/>
<path fill-rule="evenodd" clip-rule="evenodd" d="M43.4673 21.9755L46.9394 22.6249C47.522 22.8891 48.0394 23.1758 48.4165 23.4005C48.6123 23.5172 48.7688 23.6163 48.8753 23.6855C48.9286 23.72 48.9692 23.7471 48.9959 23.765C49.0093 23.774 49.0192 23.7807 49.0254 23.785L49.0319 23.7894L49.0328 23.7901C49.3466 24.0075 49.7774 23.9297 49.995 23.6159C50.2126 23.3022 50.1347 22.8714 49.8209 22.6537L49.4306 23.2165C49.8209 22.6537 49.8209 22.6537 49.8209 22.6537L49.8192 22.6526L49.816 22.6504L49.8055 22.6432C49.7965 22.6371 49.7838 22.6284 49.7676 22.6175C49.7351 22.5956 49.6883 22.5645 49.6285 22.5257C49.509 22.4481 49.3373 22.3395 49.1243 22.2126C48.6997 21.9596 48.1051 21.6302 47.4291 21.3289C46.2519 20.8042 44.6683 20.29 43.2968 20.5929C42.5625 20.7552 41.8838 21.1516 41.2979 21.6089C40.7073 22.0698 40.1747 22.621 39.7317 23.1408C39.2871 23.6624 38.9222 24.1647 38.6686 24.536C38.5414 24.7221 38.4415 24.8765 38.3727 24.9854C38.3383 25.0399 38.3116 25.0831 38.2932 25.1133C38.284 25.1284 38.2768 25.1402 38.2718 25.1486L38.2658 25.1586L38.2634 25.1626C38.2634 25.1626 38.263 25.1632 38.8579 25.5156L38.2634 25.1626C38.0688 25.4911 38.177 25.9159 38.5056 26.1105C38.834 26.305 39.258 26.1966 39.4526 25.8682M39.4526 25.8682L39.4569 25.8612C39.4603 25.8555 39.4658 25.8463 39.4733 25.8341C39.4883 25.8095 39.5113 25.7722 39.5418 25.7239C39.6029 25.6273 39.6937 25.4869 39.8105 25.3159C40.0446 24.9732 40.3797 24.5123 40.7841 24.0379C41.19 23.5616 41.6554 23.0839 42.1486 22.699C42.6004 22.3465 43.0465 22.0946 43.4673 21.9755" fill="url(#paint24_linear_2_5)"/>
<path fill-rule="evenodd" clip-rule="evenodd" d="M10.0135 32.8549C9.49971 33.0935 9.00607 33.3995 8.71388 33.6052C8.49528 33.759 8.19336 33.7065 8.03953 33.4879C7.8857 33.2693 7.93821 32.9674 8.15681 32.8135C8.4869 32.5812 9.03039 32.2442 9.60563 31.977C9.89361 31.8432 10.1994 31.7223 10.497 31.642C10.7889 31.5633 11.1058 31.5145 11.4033 31.5542C11.6682 31.5895 11.8544 31.8329 11.8191 32.0979C11.7837 32.3628 11.5403 32.549 11.2754 32.5137C11.158 32.498 10.9823 32.5137 10.7491 32.5766C10.5217 32.638 10.27 32.7357 10.0135 32.8549ZM58.5475 35.063C58.6694 34.8251 58.961 34.731 59.199 34.8528L62.0338 36.3048C62.2717 36.4267 62.3658 36.7183 62.2439 36.9562C62.1221 37.1941 61.8304 37.2882 61.5925 37.1664L58.7577 35.7144C58.5198 35.5925 58.4257 35.3009 58.5475 35.063ZM12.2634 35.3588C12.3746 35.6018 12.2678 35.889 12.0247 36.0003L7.94532 37.8671C7.70226 37.9783 7.41505 37.8715 7.30382 37.6284C7.19259 37.3854 7.29946 37.0981 7.54252 36.9869L11.6219 35.1201C11.865 35.0088 12.1522 35.1157 12.2634 35.3588ZM57.9622 37.5606C58.1175 37.343 58.4198 37.2927 58.6373 37.448L62.5093 40.2137C62.7268 40.3691 62.7772 40.6714 62.6218 40.8889C62.4665 41.1064 62.1642 41.1568 61.9467 41.0014L58.0747 38.2357C57.8572 38.0803 57.8068 37.7781 57.9622 37.5606ZM13.0761 39.4045C13.2059 39.6382 13.1217 39.9328 12.8881 40.0627C12.2516 40.4162 10.5579 41.2841 8.81749 41.9578C8.56821 42.0543 8.28791 41.9304 8.19141 41.6811C8.09492 41.4318 8.21877 41.1515 8.46805 41.055C10.1571 40.4012 11.8099 39.5543 12.418 39.2165C12.6516 39.0867 12.9463 39.1709 13.0761 39.4045ZM56.6985 40.4243C56.8379 40.1962 57.1358 40.1243 57.3638 40.2637L59.853 41.7848C60.0811 41.9242 60.153 42.2221 60.0136 42.4502C59.8742 42.6783 59.5763 42.7502 59.3482 42.6108L56.8591 41.0897C56.631 40.9503 56.5591 40.6524 56.6985 40.4243Z" fill="white"/>
<path d="M20.7148 59.0475V52.1081H22.392V54.8934H25.1264V52.1081H26.8003V59.0475H25.1264V56.2589H22.392V59.0475H20.7148Z" fill="url(#paint25_linear_2_5)"/>
<path d="M29.3534 59.0475H27.5508L29.8921 52.1081H32.1251L34.4664 59.0475H32.6638L31.034 53.8565H30.9798L29.3534 59.0475ZM29.1128 56.3165H32.8807V57.5905H29.1128V56.3165Z" fill="url(#paint26_linear_2_5)"/>
<path d="M35.2136 59.0475V52.1081H36.8908V55.0424H36.9823L39.2762 52.1081H41.2516L38.7917 55.2051L41.2957 59.0475H39.2898L37.5617 56.3199L36.8908 57.167V59.0475H35.2136Z" fill="url(#paint27_linear_2_5)"/>
<path d="M46.1114 52.1081H47.7852V56.5842C47.7852 57.1014 47.6621 57.5521 47.4159 57.9361C47.1697 58.3179 46.8263 58.6138 46.3858 58.8239C45.9454 59.0317 45.4337 59.1356 44.8509 59.1356C44.2613 59.1356 43.7463 59.0317 43.3058 58.8239C42.8653 58.6138 42.5231 58.3179 42.2791 57.9361C42.0352 57.5521 41.9132 57.1014 41.9132 56.5842V52.1081H43.5904V56.4385C43.5904 56.6779 43.6424 56.8914 43.7463 57.0789C43.8525 57.2663 44.0004 57.4132 44.1902 57.5193C44.3799 57.6255 44.6002 57.6786 44.8509 57.6786C45.1016 57.6786 45.3208 57.6255 45.5083 57.5193C45.698 57.4132 45.846 57.2663 45.9521 57.0789C46.0583 56.8914 46.1114 56.6779 46.1114 56.4385V52.1081Z" fill="url(#paint28_linear_2_5)"/>
<path fill-rule="evenodd" clip-rule="evenodd" d="M20.1336 59.6287V51.5269H22.9732V54.3122H24.5452V51.5269H27.3814V57.7314L29.4749 51.5269H32.5424L34.6324 57.7214V51.5269H37.472V53.4724L38.9928 51.5269H44.1716V56.4385C44.1716 56.5898 44.2034 56.7037 44.2534 56.7948C44.3065 56.8877 44.3769 56.9579 44.474 57.0122C44.5645 57.0628 44.6842 57.0974 44.8509 57.0974C45.0178 57.0974 45.1351 57.0627 45.2219 57.0136L45.2232 57.0129L45.2245 57.0122C45.3223 56.9574 45.3931 56.8866 45.4464 56.7925C45.4978 56.7018 45.5302 56.5889 45.5302 56.4385V51.5269H48.3664V56.5842C48.3664 57.1973 48.2192 57.7601 47.9052 58.2498L47.9043 58.2511C47.5953 58.7302 47.1663 59.0955 46.636 59.3484L46.6349 59.349L46.6338 59.3495C46.102 59.6004 45.5028 59.7168 44.8509 59.7168C44.1933 59.7168 43.5905 59.6008 43.0578 59.3495L43.0567 59.349L43.0556 59.3484C42.525 59.0954 42.0964 58.7295 41.7894 58.2491L41.7886 58.2478C41.4776 57.7583 41.332 57.1963 41.332 56.5842V52.9413L39.5072 55.2386L42.3681 59.6287H38.97L37.5089 57.3226L37.472 57.3692V59.6287H32.2371L31.7797 58.1717H30.2368L29.7803 59.6287H24.5452V56.8401H22.9732V59.6287H20.1336ZM22.392 56.2589H25.1264V59.0475H26.8003V52.1081H25.1264V54.8934H22.392V52.1081H20.7148V59.0475H22.392V56.2589ZM29.8099 57.5905H32.2064L32.6638 59.0475H34.4664L32.1251 52.1081H29.8921L27.5508 59.0475H29.3534L29.8099 57.5905ZM31.034 53.8565H30.9798L30.2091 56.3165H31.8064L31.034 53.8565ZM31.0147 55.7353L31.0075 55.7121L31.0002 55.7353H31.0147ZM36.8908 57.167V59.0475H35.2136V52.1081H36.8908V55.0424H36.9823L39.2762 52.1081H41.2516L38.7917 55.2051L41.2957 59.0475H39.2898L37.5617 56.3199L36.8908 57.167ZM41.9132 56.5842C41.9132 57.1014 42.0352 57.5521 42.2791 57.9361C42.5231 58.3179 42.8653 58.6138 43.3058 58.8239C43.7463 59.0317 44.2613 59.1356 44.8509 59.1356C45.4337 59.1356 45.9454 59.0317 46.3858 58.8239C46.8263 58.6138 47.1697 58.3179 47.4159 57.9361C47.6621 57.5521 47.7852 57.1014 47.7852 56.5842V52.1081H46.1114V56.4385C46.1114 56.6779 46.0583 56.8914 45.9521 57.0789C45.846 57.2663 45.698 57.4132 45.5083 57.5193C45.3208 57.6255 45.1016 57.6786 44.8509 57.6786C44.6002 57.6786 44.3799 57.6255 44.1902 57.5193C44.0004 57.4132 43.8525 57.2663 43.7463 57.0789C43.6424 56.8914 43.5904 56.6779 43.5904 56.4385V52.1081H41.9132V56.5842Z" fill="white"/>
<defs>
<linearGradient id="paint0_linear_2_5" x1="34.986" y1="0" x2="34.986" y2="59.7168" gradientUnits="userSpaceOnUse">
<stop offset="0.473958" stop-color="#0A0131"/>
<stop offset="0.697917" stop-color="#310026"/>
</linearGradient>
<linearGradient id="paint1_linear_2_5" x1="33.7911" y1="3.54371" x2="33.7911" y2="53.8046" gradientUnits="userSpaceOnUse">
<stop offset="0.473958" stop-color="#0A0131"/>
<stop offset="0.697917" stop-color="#310026"/>
</linearGradient>
<linearGradient id="paint2_linear_2_5" x1="58.5379" y1="11.3779" x2="58.5379" y2="54.4106" gradientUnits="userSpaceOnUse">
<stop offset="0.473958" stop-color="#0A0131"/>
<stop offset="0.697917" stop-color="#310026"/>
</linearGradient>
<linearGradient id="paint3_linear_2_5" x1="34.986" y1="0" x2="34.986" y2="59.7168" gradientUnits="userSpaceOnUse">
<stop offset="0.473958" stop-color="#0A0131"/>
<stop offset="0.697917" stop-color="#310026"/>
</linearGradient>
<linearGradient id="paint4_linear_2_5" x1="34.986" y1="0" x2="34.986" y2="59.7168" gradientUnits="userSpaceOnUse">
<stop offset="0.473958" stop-color="#0A0131"/>
<stop offset="0.697917" stop-color="#310026"/>
</linearGradient>
<linearGradient id="paint5_linear_2_5" x1="36.6165" y1="3.74284" x2="32.6856" y2="55.9235" gradientUnits="userSpaceOnUse">
<stop offset="0.473958" stop-color="#0A0131"/>
<stop offset="0.697917" stop-color="#310026"/>
</linearGradient>
<linearGradient id="paint6_linear_2_5" x1="62.9729" y1="23.9819" x2="62.9729" y2="30.7638" gradientUnits="userSpaceOnUse">
<stop offset="0.473958" stop-color="#0A0131"/>
<stop offset="0.697917" stop-color="#310026"/>
</linearGradient>
<linearGradient id="paint7_linear_2_5" x1="34.986" y1="0" x2="34.986" y2="59.7168" gradientUnits="userSpaceOnUse">
<stop offset="0.473958" stop-color="#0A0131"/>
<stop offset="0.697917" stop-color="#310026"/>
</linearGradient>
<linearGradient id="paint8_linear_2_5" x1="34.986" y1="0" x2="34.986" y2="59.7168" gradientUnits="userSpaceOnUse">
<stop offset="0.473958" stop-color="#0A0131"/>
<stop offset="0.697917" stop-color="#310026"/>
</linearGradient>
<linearGradient id="paint9_linear_2_5" x1="34.986" y1="0" x2="34.986" y2="59.7168" gradientUnits="userSpaceOnUse">
<stop offset="0.473958" stop-color="#0A0131"/>
<stop offset="0.697917" stop-color="#310026"/>
</linearGradient>
<linearGradient id="paint10_linear_2_5" x1="34.986" y1="0" x2="34.986" y2="59.7168" gradientUnits="userSpaceOnUse">
<stop offset="0.473958" stop-color="#0A0131"/>
<stop offset="0.697917" stop-color="#310026"/>
</linearGradient>
<linearGradient id="paint11_linear_2_5" x1="62.9729" y1="23.9819" x2="62.9729" y2="30.7638" gradientUnits="userSpaceOnUse">
<stop offset="0.473958" stop-color="#0A0131"/>
<stop offset="0.697917" stop-color="#310026"/>
</linearGradient>
<linearGradient id="paint12_linear_2_5" x1="34.986" y1="0" x2="34.986" y2="59.7168" gradientUnits="userSpaceOnUse">
<stop offset="0.473958" stop-color="#0A0131"/>
<stop offset="0.697917" stop-color="#310026"/>
</linearGradient>
<linearGradient id="paint13_linear_2_5" x1="62.9729" y1="23.9819" x2="62.9729" y2="30.7638" gradientUnits="userSpaceOnUse">
<stop offset="0.473958" stop-color="#0A0131"/>
<stop offset="0.697917" stop-color="#310026"/>
</linearGradient>
<linearGradient id="paint14_linear_2_5" x1="34.9857" y1="6.97786" x2="34.9857" y2="52.739" gradientUnits="userSpaceOnUse">
<stop offset="0.473958" stop-color="#0A0131"/>
<stop offset="0.697917" stop-color="#310026"/>
</linearGradient>
<linearGradient id="paint15_linear_2_5" x1="34.9859" y1="14.3577" x2="34.9859" y2="45.3582" gradientUnits="userSpaceOnUse">
<stop offset="0.473958" stop-color="#0A0131"/>
<stop offset="0.697917" stop-color="#310026"/>
</linearGradient>
<linearGradient id="paint16_linear_2_5" x1="34.9859" y1="6.28692" x2="34.9859" y2="53.4275" gradientUnits="userSpaceOnUse">
<stop offset="0.473958" stop-color="#0A0131"/>
<stop offset="0.697917" stop-color="#310026"/>
</linearGradient>
<linearGradient id="paint17_linear_2_5" x1="34.9857" y1="6.97786" x2="34.9857" y2="52.739" gradientUnits="userSpaceOnUse">
<stop offset="0.473958" stop-color="#0A0131"/>
<stop offset="0.697917" stop-color="#310026"/>
</linearGradient>
<linearGradient id="paint18_linear_2_5" x1="34.9859" y1="14.3577" x2="34.9859" y2="45.3582" gradientUnits="userSpaceOnUse">
<stop offset="0.473958" stop-color="#0A0131"/>
<stop offset="0.697917" stop-color="#310026"/>
</linearGradient>
<linearGradient id="paint19_linear_2_5" x1="34.9859" y1="6.28692" x2="34.9859" y2="53.4275" gradientUnits="userSpaceOnUse">
<stop offset="0.473958" stop-color="#0A0131"/>
<stop offset="0.697917" stop-color="#310026"/>
</linearGradient>
<linearGradient id="paint20_linear_2_5" x1="34.986" y1="0" x2="34.986" y2="59.7168" gradientUnits="userSpaceOnUse">
<stop offset="0.473958" stop-color="#0A0131"/>
<stop offset="0.697917" stop-color="#310026"/>
</linearGradient>
<linearGradient id="paint21_linear_2_5" x1="34.986" y1="4.00782" x2="34.986" y2="55.7084" gradientUnits="userSpaceOnUse">
<stop offset="0.473958" stop-color="#0A0131"/>
<stop offset="0.697917" stop-color="#310026"/>
</linearGradient>
<linearGradient id="paint22_linear_2_5" x1="34.986" y1="0" x2="34.986" y2="59.7168" gradientUnits="userSpaceOnUse">
<stop offset="0.473958" stop-color="#0A0131"/>
<stop offset="0.697917" stop-color="#310026"/>
</linearGradient>
<linearGradient id="paint23_linear_2_5" x1="34.986" y1="0" x2="34.986" y2="59.7168" gradientUnits="userSpaceOnUse">
<stop offset="0.473958" stop-color="#0A0131"/>
<stop offset="0.697917" stop-color="#310026"/>
</linearGradient>
<linearGradient id="paint24_linear_2_5" x1="48.1114" y1="3.42515" x2="40.1397" y2="15.3703" gradientUnits="userSpaceOnUse">
<stop offset="0.473958" stop-color="#0A0131"/>
<stop offset="0.697917" stop-color="#310026"/>
</linearGradient>
<linearGradient id="paint25_linear_2_5" x1="51.7015" y1="-35.5073" x2="-34.6059" y2="30.9295" gradientUnits="userSpaceOnUse">
<stop stop-color="#0A0030"/>
<stop offset="1" stop-color="#300026"/>
</linearGradient>
<linearGradient id="paint26_linear_2_5" x1="51.7015" y1="-35.5073" x2="-34.6059" y2="30.9295" gradientUnits="userSpaceOnUse">
<stop stop-color="#0A0030"/>
<stop offset="1" stop-color="#300026"/>
</linearGradient>
<linearGradient id="paint27_linear_2_5" x1="51.7015" y1="-35.5073" x2="-34.6059" y2="30.9295" gradientUnits="userSpaceOnUse">
<stop stop-color="#0A0030"/>
<stop offset="1" stop-color="#300026"/>
</linearGradient>
<linearGradient id="paint28_linear_2_5" x1="51.7015" y1="-35.5073" x2="-34.6059" y2="30.9295" gradientUnits="userSpaceOnUse">
<stop stop-color="#0A0030"/>
<stop offset="1" stop-color="#300026"/>
</linearGradient>
</defs>
</svg>
